# MagicaVoxel @ Ephtracy

# group
o 

# material
mtllib untitled-5.mtl
usemtl palette

# normals
vn -1 0 0
vn 1 0 0
vn 0 0 1
vn 0 0 -1
vn 0 -1 0
vn 0 1 0

# texcoords
vt 0.841797 0.5
vt 0.994141 0.5

# verts
v -1.1 0 -1.8
v -1.1 0 -2.1
v -1.1 0.1 -1.8
v -1.1 0.1 -2.1
v -1 0 -1.6
v -1 0 -1.8
v -1 0 -2.1
v -1 0 -2.2
v -1 0.1 -1.8
v -1 0.1 -2.1
v -1 2.3 -1.6
v -1 2.3 -2.2
v -0.4 0 -1.6
v -0.4 0 -2.2
v -0.4 2.3 -1.6
v -0.4 2.3 -2.2
v -1 0 -1.6
v -1 2.3 -1.6
v -0.4 0 -1.6
v -0.4 2.3 -1.6
v -1.1 0 -1.8
v -1.1 0.1 -1.8
v -1 0 -1.8
v -1 0.1 -1.8
v -1.1 0 -2.1
v -1.1 0.1 -2.1
v -1 0 -2.1
v -1 0.1 -2.1
v -1 0 -2.2
v -1 2.3 -2.2
v -0.4 0 -2.2
v -0.4 2.3 -2.2
v -1 0 -1.6
v -0.4 0 -1.6
v -1.1 0 -1.8
v -1 0 -1.8
v -1.1 0 -2.1
v -1 0 -2.1
v -1 0 -2.2
v -0.4 0 -2.2
v -1.1 0.1 -1.8
v -1 0.1 -1.8
v -1.1 0.1 -2.1
v -1 0.1 -2.1
v -1 2.3 -1.6
v -0.4 2.3 -1.6
v -1 2.3 -2.2
v -0.4 2.3 -2.2

# faces
f 3/1/1 2/1/1 1/1/1
f 4/1/1 2/1/1 3/1/1
f 9/2/1 6/2/1 5/2/1
f 10/2/1 8/2/1 7/2/1
f 11/2/1 9/2/1 5/2/1
f 11/2/1 10/2/1 9/2/1
f 12/2/1 8/2/1 10/2/1
f 12/2/1 10/2/1 11/2/1
f 13/2/2 14/2/2 15/2/2
f 15/2/2 14/2/2 16/2/2
f 19/2/3 18/2/3 17/2/3
f 20/2/3 18/2/3 19/2/3
f 23/1/3 22/1/3 21/1/3
f 24/1/3 22/1/3 23/1/3
f 25/1/4 26/1/4 27/1/4
f 27/1/4 26/1/4 28/1/4
f 29/2/4 30/2/4 31/2/4
f 31/2/4 30/2/4 32/2/4
f 36/2/5 34/2/5 33/2/5
f 37/1/5 36/1/5 35/1/5
f 38/2/5 34/2/5 36/2/5
f 38/1/5 36/1/5 37/1/5
f 39/2/5 34/2/5 38/2/5
f 40/2/5 34/2/5 39/2/5
f 41/1/6 42/1/6 43/1/6
f 43/1/6 42/1/6 44/1/6
f 45/2/6 46/2/6 47/2/6
f 47/2/6 46/2/6 48/2/6
